<svg id="svg" version="1.1" xmlns="http://www.w3.org/2000/svg" xmlns:xlink="http://www.w3.org/1999/xlink" width="400" height="136.7211131276467" viewBox="0, 0, 400,136.7211131276467"><g id="svgg"><path id="path0" d="M0.000 68.333 L 0.000 136.667 200.000 136.667 L 400.000 136.667 400.000 68.333 L 400.000 0.000 200.000 0.000 L 0.000 0.000 0.000 68.333 M362.595 1.454 C 381.125 4.856,394.536 17.600,398.513 35.583 C 399.108 38.276,399.157 40.760,399.157 68.417 C 399.157 96.224,399.110 98.543,398.496 101.333 C 394.302 120.370,378.764 133.992,359.333 135.665 C 356.693 135.893,45.474 135.893,42.833 135.665 C 21.976 133.869,5.503 118.035,3.076 97.447 C 2.720 94.435,2.720 42.398,3.076 39.387 C 5.413 19.567,21.361 3.535,40.917 1.347 C 41.833 1.244,42.808 1.135,43.083 1.105 C 43.358 1.074,114.908 1.057,202.083 1.067 L 360.583 1.084 362.595 1.454 M41.944 23.778 C 41.261 24.461,41.838 24.950,43.979 25.501 L 45.750 25.957 45.853 41.603 C 45.952 56.539,46.001 57.975,46.462 59.667 C 48.200 66.029,52.246 69.701,59.500 71.500 C 62.039 72.129,67.796 72.294,69.917 71.799 C 75.897 70.400,79.748 66.378,81.611 59.583 L 82.068 57.917 82.128 42.558 C 82.196 25.298,82.056 26.934,83.500 26.450 C 83.912 26.311,84.438 26.121,84.667 26.028 C 84.896 25.934,85.627 25.658,86.292 25.414 C 87.526 24.961,87.861 24.579,87.606 23.915 C 87.447 23.502,74.699 23.624,74.436 24.042 C 74.005 24.725,74.653 25.108,78.500 26.444 C 78.912 26.587,79.387 26.776,79.554 26.864 C 79.939 27.067,79.895 56.927,79.508 58.333 C 79.394 58.746,79.185 59.533,79.042 60.083 C 77.256 66.988,71.060 71.337,65.125 69.854 C 60.728 68.755,58.379 65.376,57.638 59.083 C 57.354 56.675,57.269 26.261,57.546 26.031 C 57.665 25.932,58.135 25.760,58.590 25.649 C 61.329 24.979,61.911 24.613,61.337 23.922 C 61.116 23.654,42.208 23.514,41.944 23.778 M147.631 23.958 C 147.436 24.902,147.826 25.166,150.167 25.671 C 150.671 25.780,151.196 25.925,151.333 25.994 C 151.649 26.153,151.805 39.167,151.491 39.167 C 151.392 39.167,151.072 38.990,150.781 38.773 C 150.331 38.441,149.165 37.797,148.155 37.324 C 144.566 35.644,137.895 36.864,134.360 39.848 C 132.563 41.364,130.018 45.184,130.004 46.386 C 130.002 46.552,129.923 46.833,129.829 47.009 C 128.508 49.476,128.608 58.099,130.007 62.333 C 133.353 72.464,145.584 75.623,151.624 67.917 C 152.709 66.533,152.765 66.520,153.326 67.541 C 154.438 69.562,155.553 70.453,158.300 71.518 C 158.725 71.683,166.319 71.726,166.736 71.566 C 167.074 71.436,167.094 70.286,166.764 70.012 C 166.512 69.802,164.082 69.008,163.667 69.000 C 162.879 68.984,162.922 70.061,162.833 48.381 C 162.741 25.779,162.811 27.070,161.592 25.584 C 160.114 23.779,159.614 23.667,153.056 23.667 C 148.081 23.667,147.687 23.688,147.631 23.958 M174.526 24.027 C 171.416 25.455,170.740 29.654,173.230 32.083 C 176.368 35.146,181.465 33.015,181.492 28.630 C 181.515 24.945,177.830 22.510,174.526 24.027 M187.444 23.778 C 187.249 23.973,187.325 25.286,187.542 25.460 C 187.770 25.644,190.386 26.333,190.855 26.333 C 191.343 26.333,191.336 26.000,191.338 48.023 L 191.340 69.407 190.961 69.548 C 190.754 69.626,190.283 69.755,189.917 69.834 C 187.578 70.341,187.290 70.490,187.367 71.152 L 187.417 71.583 197.000 71.583 L 206.583 71.583 206.633 71.152 C 206.704 70.547,206.427 70.380,204.565 69.908 C 203.663 69.679,202.871 69.437,202.804 69.371 C 202.738 69.304,202.661 59.950,202.633 48.583 L 202.583 27.917 202.204 27.025 C 201.510 25.393,200.698 24.615,199.003 23.958 C 198.231 23.659,187.727 23.495,187.444 23.778 M328.667 24.320 C 328.667 25.043,328.939 25.190,331.167 25.671 C 331.671 25.780,332.196 25.925,332.333 25.994 C 332.649 26.153,332.805 39.167,332.491 39.167 C 332.392 39.167,332.072 38.990,331.781 38.773 C 331.331 38.441,330.165 37.797,329.155 37.324 C 326.485 36.074,321.032 36.527,317.681 38.277 C 314.829 39.767,311.027 44.384,311.004 46.386 C 311.002 46.552,310.923 46.833,310.829 47.009 C 309.855 48.828,309.561 56.782,310.352 59.917 C 312.288 67.589,316.572 71.691,323.083 72.105 C 327.012 72.355,330.187 70.964,332.599 67.936 C 333.719 66.531,333.765 66.521,334.326 67.541 C 335.395 69.482,336.864 70.704,338.948 71.384 C 339.823 71.670,347.075 71.819,347.736 71.566 C 348.059 71.442,348.101 70.290,347.792 70.036 C 347.538 69.828,345.032 69.000,344.655 69.000 C 343.793 69.000,343.833 70.020,343.832 48.404 C 343.831 25.900,343.901 27.180,342.579 25.567 C 341.115 23.781,340.603 23.667,334.044 23.667 L 328.667 23.667 328.667 24.320 M255.167 27.115 C 252.050 28.216,251.177 29.683,251.043 34.042 L 250.952 37.000 239.759 37.000 C 227.797 37.000,228.167 36.973,228.167 37.835 C 228.167 38.607,228.507 38.833,230.339 39.282 C 231.298 39.517,232.121 39.767,232.167 39.838 C 232.213 39.910,232.213 45.509,232.167 52.282 L 232.083 64.597 231.500 65.590 C 228.834 70.131,224.535 70.527,222.460 66.423 C 221.441 64.406,221.456 64.591,221.338 52.500 C 221.230 41.444,221.196 40.847,220.612 39.721 C 219.400 37.382,218.012 36.981,211.333 37.039 L 206.250 37.083 206.200 37.864 C 206.139 38.801,206.124 38.791,208.379 39.335 C 209.718 39.658,210.023 39.789,210.087 40.072 C 210.129 40.262,210.185 45.517,210.210 51.750 C 210.262 64.279,210.162 63.099,211.363 65.417 C 215.489 73.380,227.692 74.529,232.591 67.416 C 233.359 66.301,233.304 66.303,233.948 67.375 C 234.695 68.616,236.858 70.667,237.422 70.667 C 237.483 70.667,237.769 70.773,238.058 70.902 C 239.389 71.499,240.311 71.680,241.772 71.632 L 243.250 71.583 243.333 55.833 C 243.379 47.171,243.471 40.000,243.537 39.898 C 243.604 39.796,244.016 39.623,244.454 39.513 C 244.892 39.403,245.521 39.243,245.853 39.157 C 246.184 39.071,247.473 39.000,248.717 39.000 L 250.979 39.000 251.040 50.542 L 251.100 62.083 251.515 63.255 C 253.127 67.804,256.501 70.639,261.667 71.785 C 263.240 72.134,267.435 72.185,268.417 71.867 C 272.231 70.633,274.371 67.850,275.015 63.286 C 275.258 61.566,275.196 61.444,274.074 61.444 C 273.145 61.444,273.006 61.619,273.003 62.794 C 272.984 69.182,265.918 72.821,263.379 67.750 C 262.373 65.740,262.323 64.979,262.284 51.292 L 262.250 39.000 266.719 39.000 C 271.736 39.000,271.833 38.981,271.833 38.000 C 271.833 37.019,271.736 37.000,266.719 37.000 L 262.250 37.000 262.301 32.453 C 262.333 29.601,262.288 27.737,262.180 27.453 L 262.008 27.000 258.712 27.013 C 256.900 27.020,255.304 27.066,255.167 27.115 M108.135 36.922 C 105.888 37.537,103.298 39.508,101.966 41.618 C 101.137 42.930,101.155 42.932,100.342 41.370 C 99.365 39.491,97.153 37.500,96.043 37.500 C 95.873 37.500,95.640 37.406,95.525 37.292 C 95.370 37.136,94.289 37.083,91.286 37.083 L 87.255 37.083 87.035 37.542 C 86.622 38.401,87.007 38.802,89.083 39.674 L 90.917 40.445 90.959 54.961 C 90.999 68.678,90.986 69.482,90.709 69.569 C 90.548 69.620,90.079 69.735,89.667 69.824 C 87.180 70.362,87.164 70.368,87.063 70.772 C 86.827 71.712,86.337 71.667,96.658 71.667 L 106.160 71.667 106.265 71.248 C 106.427 70.602,106.119 70.398,104.369 69.994 C 103.479 69.789,102.656 69.547,102.542 69.457 C 102.203 69.190,102.243 45.299,102.584 44.332 C 103.702 41.162,106.806 38.862,109.099 39.504 C 110.802 39.981,112.146 41.790,112.871 44.583 C 112.976 44.990,113.085 49.602,113.150 56.417 L 113.256 67.583 113.768 68.672 C 115.038 71.374,116.012 71.685,123.024 71.627 L 128.417 71.583 128.467 71.152 C 128.529 70.613,128.247 70.374,127.316 70.178 C 126.038 69.910,124.736 69.563,124.531 69.436 C 124.382 69.343,124.333 66.518,124.333 57.845 L 124.333 46.376 123.929 45.137 C 123.209 42.931,121.653 40.753,119.855 39.432 C 118.892 38.725,116.608 37.500,116.254 37.500 C 116.112 37.500,115.865 37.427,115.706 37.339 C 114.552 36.696,109.898 36.440,108.135 36.922 M288.000 36.929 C 287.404 37.057,286.786 37.238,286.627 37.331 C 286.468 37.424,286.226 37.500,286.089 37.500 C 285.952 37.500,285.194 37.798,284.404 38.163 C 272.171 43.815,271.855 64.489,283.917 70.121 C 284.192 70.250,284.557 70.431,284.727 70.524 C 287.100 71.816,293.524 72.508,297.000 71.845 C 302.043 70.883,306.667 66.326,306.667 62.317 C 306.667 61.437,306.527 61.278,305.750 61.278 C 304.990 61.278,304.878 61.400,304.659 62.461 C 303.303 69.031,294.975 72.545,290.536 68.420 C 288.234 66.281,287.347 63.508,287.061 57.555 L 286.972 55.693 290.944 55.610 C 295.028 55.525,297.905 55.323,299.481 55.011 C 299.975 54.913,300.683 54.833,301.054 54.833 C 301.426 54.833,302.147 54.760,302.657 54.671 C 303.166 54.582,304.333 54.392,305.250 54.248 C 306.167 54.104,307.092 53.933,307.305 53.868 C 308.383 53.541,308.749 48.846,307.899 46.246 C 306.367 41.554,302.262 38.258,296.333 36.960 C 295.075 36.685,289.243 36.663,288.000 36.929 M167.762 37.262 C 166.926 38.097,167.713 38.585,171.208 39.400 L 171.667 39.506 171.667 54.424 L 171.667 69.342 171.239 69.504 C 171.004 69.593,170.135 69.827,169.309 70.024 C 167.727 70.400,167.347 70.717,167.692 71.375 C 167.945 71.857,186.761 71.823,186.915 71.340 C 187.063 70.871,186.731 70.354,186.204 70.232 C 185.954 70.175,185.150 69.965,184.417 69.766 L 183.083 69.405 182.985 55.661 C 182.924 47.108,182.823 41.696,182.717 41.333 C 182.038 39.004,181.158 38.072,178.917 37.307 C 177.710 36.894,168.168 36.856,167.762 37.262 M292.804 38.387 C 295.439 39.175,296.823 42.517,296.830 48.105 C 296.836 53.065,296.666 53.329,293.333 53.522 C 292.096 53.594,290.160 53.705,289.033 53.769 L 286.982 53.886 287.057 51.568 C 287.376 41.739,289.295 37.338,292.804 38.387 M148.386 39.364 C 149.460 39.815,151.309 41.247,151.514 41.786 C 151.894 42.786,151.696 64.000,151.299 64.822 C 150.530 66.415,149.591 67.588,148.500 68.321 C 145.883 70.078,143.831 69.473,142.328 66.500 C 140.180 62.254,140.115 47.276,142.224 42.333 C 143.396 39.585,145.967 38.346,148.386 39.364 M329.386 39.364 C 330.460 39.815,332.309 41.247,332.514 41.786 C 332.894 42.786,332.696 64.000,332.299 64.822 C 331.530 66.415,330.591 67.588,329.500 68.321 C 326.883 70.078,324.831 69.473,323.328 66.500 C 321.180 62.254,321.115 47.276,323.224 42.333 C 324.396 39.585,326.967 38.346,329.386 39.364 M43.944 102.611 C 43.567 102.989,43.843 103.833,44.345 103.833 C 44.756 103.833,44.837 103.890,44.762 104.125 C 44.710 104.285,43.931 106.367,43.031 108.750 L 41.395 113.083 40.739 113.167 C 39.924 113.270,39.642 114.199,40.366 114.393 C 40.939 114.546,43.883 114.516,44.138 114.354 C 44.650 114.030,44.296 113.254,43.611 113.197 C 43.090 113.155,42.993 113.094,43.084 112.864 C 43.145 112.710,43.349 112.171,43.537 111.667 C 44.049 110.289,43.958 110.333,46.250 110.333 C 48.536 110.333,48.432 110.282,48.955 111.667 C 49.145 112.171,49.352 112.710,49.414 112.864 C 49.507 113.094,49.411 113.154,48.889 113.197 C 48.323 113.244,48.244 113.305,48.195 113.732 C 48.117 114.412,48.351 114.495,50.333 114.495 C 52.316 114.495,52.549 114.412,52.472 113.732 C 52.423 113.308,52.337 113.240,51.756 113.167 L 51.095 113.083 49.141 108.005 C 48.066 105.212,47.055 102.831,46.895 102.713 C 46.591 102.491,44.149 102.406,43.944 102.611 M64.475 102.895 C 59.248 105.045,59.940 113.189,65.455 114.430 C 67.659 114.926,70.344 113.984,71.438 112.331 C 72.272 111.071,71.198 110.524,70.127 111.662 C 68.059 113.860,64.446 113.486,63.131 110.937 C 62.420 109.561,62.546 106.894,63.379 105.650 C 65.007 103.221,69.661 103.591,70.026 106.179 C 70.077 106.539,70.166 106.583,70.833 106.583 L 71.583 106.583 71.630 104.629 C 71.677 102.678,71.677 102.676,71.268 102.573 C 70.508 102.382,70.254 102.536,70.198 103.221 L 70.145 103.856 69.575 103.422 C 68.261 102.419,66.160 102.202,64.475 102.895 M77.820 102.890 C 73.486 104.673,72.805 110.765,76.632 113.506 C 80.221 116.076,85.103 113.902,85.657 109.486 C 86.265 104.646,82.091 101.133,77.820 102.890 M91.876 102.756 C 86.305 104.509,87.055 113.351,92.872 114.520 C 95.451 115.038,100.107 112.466,98.681 111.312 C 98.139 110.873,97.986 110.912,97.242 111.681 C 93.707 115.333,88.229 111.415,90.083 106.561 C 91.281 103.424,96.079 103.012,97.087 105.960 C 97.319 106.637,98.370 106.972,98.689 106.470 C 98.942 106.070,98.863 102.898,98.593 102.675 C 98.074 102.244,97.421 102.527,97.365 103.208 C 97.303 103.958,97.306 103.958,96.532 103.354 C 95.419 102.487,93.509 102.242,91.876 102.756 M101.444 102.611 C 100.997 103.059,101.349 103.833,102.000 103.833 L 102.667 103.833 102.667 108.500 L 102.667 113.167 102.000 113.167 C 101.353 113.167,101.333 113.184,101.333 113.732 C 101.333 114.459,101.458 114.500,103.667 114.500 C 105.875 114.500,106.000 114.459,106.000 113.732 L 106.000 113.167 105.167 113.167 L 104.333 113.167 104.333 111.397 L 104.333 109.627 105.875 109.694 C 107.817 109.779,107.655 109.649,108.862 112.088 C 110.015 114.418,110.712 114.920,112.070 114.399 C 112.662 114.172,112.403 113.167,111.752 113.167 C 111.185 113.167,111.151 113.128,110.400 111.625 C 109.977 110.777,109.447 109.839,109.222 109.539 L 108.813 108.996 109.315 108.573 C 109.972 108.020,110.663 106.537,110.770 105.450 C 110.924 103.875,110.945 103.833,111.583 103.833 C 112.233 103.833,112.560 103.223,112.165 102.748 C 111.935 102.470,108.607 102.385,108.195 102.646 C 107.680 102.972,108.037 103.746,108.730 103.803 L 109.377 103.856 109.263 104.965 C 109.008 107.456,108.234 108.219,105.875 108.308 L 104.333 108.366 104.333 106.099 L 104.333 103.833 104.917 103.833 C 105.569 103.833,105.830 102.829,105.236 102.601 C 104.878 102.464,101.583 102.472,101.444 102.611 M114.868 102.640 C 114.712 102.740,114.666 103.188,114.701 104.264 L 114.750 105.750 115.450 105.801 L 116.149 105.852 116.200 104.884 L 116.250 103.917 117.708 103.869 L 119.167 103.820 119.167 108.484 L 119.167 113.148 118.458 113.199 C 117.597 113.261,117.266 114.187,118.033 114.393 C 118.607 114.546,121.716 114.516,121.972 114.354 C 122.477 114.034,122.131 113.254,121.458 113.198 L 120.833 113.147 120.833 108.490 L 120.833 103.833 122.242 103.833 L 123.650 103.833 123.700 104.792 L 123.750 105.750 124.464 105.802 L 125.179 105.853 125.131 104.218 L 125.083 102.583 120.083 102.543 C 117.333 102.521,114.986 102.564,114.868 102.640 M131.174 102.741 C 130.826 103.161,131.027 103.744,131.542 103.803 C 132.196 103.878,132.454 103.026,128.972 112.292 C 128.652 113.143,128.625 113.167,127.988 113.167 C 127.352 113.167,127.333 113.183,127.333 113.747 C 127.333 114.475,127.520 114.531,129.750 114.465 L 131.417 114.417 131.468 113.792 C 131.519 113.177,131.511 113.167,130.927 113.167 C 130.213 113.167,130.217 113.215,130.812 111.664 L 131.291 110.417 133.514 110.417 L 135.737 110.417 136.272 111.792 L 136.808 113.167 136.154 113.167 C 135.522 113.167,135.500 113.185,135.500 113.732 C 135.500 114.448,135.642 114.500,137.583 114.500 C 139.525 114.500,139.667 114.448,139.667 113.732 C 139.667 113.187,139.644 113.167,139.023 113.167 C 138.407 113.167,138.366 113.132,138.083 112.375 C 135.150 104.529,134.475 102.921,134.009 102.672 C 133.507 102.403,131.412 102.454,131.174 102.741 M142.444 102.611 C 141.997 103.059,142.349 103.833,143.000 103.833 L 143.667 103.833 143.667 108.500 L 143.667 113.167 143.000 113.167 C 142.272 113.167,141.950 114.151,142.597 114.399 C 142.940 114.531,145.970 114.526,146.467 114.393 C 147.234 114.187,146.903 113.261,146.042 113.199 L 145.333 113.148 145.333 108.500 L 145.333 103.852 146.042 103.801 C 146.806 103.746,147.089 103.259,146.659 102.741 C 146.450 102.489,142.683 102.373,142.444 102.611 M149.195 102.643 C 148.652 102.994,149.040 103.747,149.792 103.801 L 150.500 103.852 150.500 108.500 L 150.500 113.148 149.792 113.199 C 149.040 113.253,148.650 114.009,149.195 114.354 C 149.446 114.514,157.830 114.555,158.236 114.399 C 158.449 114.317,158.500 114.013,158.500 112.816 L 158.500 111.333 157.833 111.333 L 157.167 111.333 157.167 112.250 L 157.167 113.167 154.581 113.167 L 151.995 113.167 152.039 108.542 L 152.083 103.917 152.801 103.865 C 153.519 103.813,153.519 103.813,153.468 103.198 L 153.417 102.583 151.417 102.541 C 150.317 102.518,149.317 102.564,149.195 102.643 M166.899 102.735 C 166.659 103.360,166.901 103.748,167.583 103.833 L 168.250 103.917 168.294 108.532 L 168.339 113.147 167.628 113.199 C 166.874 113.253,166.482 114.008,167.028 114.354 C 167.283 114.516,171.057 114.547,171.634 114.393 C 172.603 114.133,172.041 113.256,170.870 113.200 L 169.823 113.150 169.870 111.200 L 169.917 109.250 171.917 109.167 L 173.917 109.083 173.917 108.500 L 173.917 107.917 171.870 107.870 L 169.823 107.823 169.870 105.870 L 169.917 103.917 172.125 103.870 L 174.333 103.824 174.333 104.482 C 174.333 105.503,174.452 105.667,175.191 105.667 L 175.846 105.667 175.798 104.125 L 175.750 102.583 171.371 102.539 C 167.679 102.501,166.977 102.532,166.899 102.735 M178.362 102.646 C 177.844 102.974,178.205 103.744,178.917 103.833 L 179.583 103.917 179.628 108.532 L 179.672 113.147 178.961 113.199 C 178.207 113.253,177.816 114.008,178.362 114.354 C 178.615 114.515,182.003 114.552,182.403 114.399 C 183.103 114.130,182.720 113.167,181.914 113.167 L 181.161 113.167 181.206 108.542 L 181.250 103.917 181.958 103.865 C 182.725 103.810,183.062 102.854,182.403 102.601 C 182.003 102.448,178.615 102.485,178.362 102.646 M185.065 102.738 C 184.826 103.360,185.069 103.748,185.750 103.833 L 186.417 103.917 186.461 108.532 L 186.505 113.147 185.794 113.199 C 185.041 113.253,184.649 114.008,185.195 114.354 C 185.448 114.515,188.837 114.552,189.236 114.399 C 189.935 114.131,189.554 113.167,188.750 113.167 L 188.000 113.167 188.000 109.333 C 188.000 107.225,188.033 105.500,188.073 105.500 C 188.113 105.500,188.605 106.231,189.166 107.125 C 193.895 114.653,194.011 114.795,195.125 114.403 L 195.583 114.242 195.627 109.038 L 195.671 103.833 196.346 103.833 L 197.020 103.833 196.968 103.208 L 196.917 102.583 195.083 102.535 C 192.675 102.471,192.465 102.527,192.532 103.214 C 192.580 103.716,192.629 103.753,193.292 103.801 L 194.000 103.852 194.000 107.801 L 193.999 111.750 193.199 110.500 C 188.884 103.760,188.220 102.782,187.865 102.647 C 187.209 102.398,185.170 102.464,185.065 102.738 M199.444 102.611 C 198.997 103.059,199.349 103.833,200.000 103.833 L 200.667 103.833 200.667 108.500 L 200.667 113.167 200.000 113.167 C 199.272 113.167,198.950 114.151,199.597 114.399 C 200.630 114.795,206.069 114.393,207.153 113.840 C 210.772 111.994,210.994 105.742,207.520 103.513 C 206.244 102.694,200.053 102.003,199.444 102.611 M212.398 102.738 C 212.159 103.360,212.402 103.748,213.083 103.833 L 213.750 103.917 213.794 108.532 L 213.839 113.147 213.128 113.199 C 212.374 113.253,211.982 114.008,212.528 114.354 C 212.814 114.535,221.180 114.539,221.466 114.358 C 221.621 114.260,221.667 113.828,221.632 112.819 L 221.583 111.417 220.917 111.417 L 220.250 111.417 220.200 112.292 L 220.149 113.167 217.741 113.167 L 215.333 113.167 215.333 111.167 L 215.333 109.167 217.505 109.167 C 219.857 109.167,219.982 109.116,219.765 108.250 L 219.660 107.833 217.492 107.833 L 215.323 107.833 215.370 105.875 L 215.417 103.917 217.783 103.870 L 220.149 103.824 220.199 104.704 L 220.250 105.583 220.958 105.635 L 221.667 105.686 221.667 104.194 C 221.667 102.988,221.616 102.683,221.403 102.601 C 220.788 102.365,212.493 102.491,212.398 102.738 M224.111 102.611 C 223.664 103.059,224.016 103.833,224.667 103.833 L 225.333 103.833 225.333 108.500 L 225.333 113.167 224.667 113.167 C 224.020 113.167,224.000 113.184,224.000 113.732 C 224.000 114.459,224.125 114.500,226.333 114.500 C 228.542 114.500,228.667 114.459,228.667 113.732 L 228.667 113.167 227.833 113.167 L 227.000 113.167 227.000 111.500 L 227.000 109.833 228.224 109.833 C 229.687 109.833,229.685 109.832,230.680 111.917 C 231.869 114.410,232.238 114.711,233.760 114.426 C 234.659 114.257,234.568 113.277,233.646 113.200 C 233.118 113.155,233.004 113.063,232.731 112.459 C 232.560 112.079,232.108 111.220,231.726 110.551 C 231.317 109.834,231.118 109.333,231.241 109.333 C 233.385 109.333,234.038 104.896,232.111 103.426 C 231.093 102.650,224.722 102.001,224.111 102.611 M81.912 104.407 C 85.758 106.670,84.280 113.090,79.917 113.070 C 75.080 113.048,74.318 105.506,78.999 103.980 C 79.681 103.757,81.182 103.977,81.912 104.407 M206.051 104.336 C 207.384 104.926,208.161 106.114,208.293 107.767 C 208.579 111.321,207.267 112.921,203.904 113.122 L 202.333 113.216 202.333 108.503 L 202.333 103.790 203.842 103.908 C 204.704 103.976,205.650 104.159,206.051 104.336 M230.645 104.239 C 231.394 104.626,231.705 105.198,231.705 106.185 C 231.705 107.791,230.940 108.337,228.623 108.385 L 227.083 108.417 227.037 106.100 L 226.990 103.784 228.559 103.877 C 229.502 103.934,230.333 104.078,230.645 104.239 M134.433 106.914 C 134.837 107.986,135.126 108.932,135.074 109.015 C 134.962 109.196,131.833 109.222,131.833 109.042 C 131.832 108.634,133.437 104.703,133.555 104.822 C 133.634 104.901,134.029 105.842,134.433 106.914 M47.170 106.959 C 48.098 109.339,48.170 109.167,46.250 109.167 C 44.336 109.167,44.415 109.357,45.313 106.912 C 46.229 104.421,46.181 104.420,47.170 106.959 " stroke="none" fill="#faf9f8" fill-rule="evenodd"></path><path id="path1" d="M43.083 1.105 C 42.808 1.135,41.833 1.244,40.917 1.347 C 27.032 2.900,14.195 11.834,7.648 24.500 C 5.128 29.374,3.713 33.983,3.076 39.387 C 2.720 42.398,2.720 94.435,3.076 97.447 C 5.503 118.035,21.976 133.869,42.833 135.665 C 45.474 135.893,356.693 135.893,359.333 135.665 C 380.049 133.882,397.541 117.125,399.001 97.667 C 399.206 94.930,399.206 41.904,399.001 39.167 C 398.567 33.389,395.879 25.987,392.251 20.583 C 385.259 10.168,375.393 3.804,362.595 1.454 L 360.583 1.084 202.083 1.067 C 114.908 1.057,43.358 1.074,43.083 1.105 M61.337 23.922 C 61.911 24.613,61.329 24.979,58.590 25.649 C 58.135 25.760,57.665 25.932,57.546 26.031 C 57.269 26.261,57.354 56.675,57.638 59.083 C 58.379 65.376,60.728 68.755,65.125 69.854 C 71.060 71.337,77.256 66.988,79.042 60.083 C 79.185 59.533,79.394 58.746,79.508 58.333 C 79.895 56.927,79.939 27.067,79.554 26.864 C 79.387 26.776,78.912 26.587,78.500 26.444 C 74.653 25.108,74.005 24.725,74.436 24.042 C 74.699 23.624,87.447 23.502,87.606 23.915 C 87.861 24.579,87.526 24.961,86.292 25.414 C 85.627 25.658,84.896 25.934,84.667 26.028 C 84.438 26.121,83.912 26.311,83.500 26.450 C 82.056 26.934,82.196 25.298,82.128 42.558 L 82.068 57.917 81.611 59.583 C 78.974 69.198,72.114 73.405,61.583 71.864 C 54.096 70.768,48.860 66.973,46.958 61.261 C 45.950 58.232,45.965 58.505,45.853 41.603 L 45.750 25.957 43.979 25.501 C 41.838 24.950,41.261 24.461,41.944 23.778 C 42.208 23.514,61.116 23.654,61.337 23.922 M159.311 23.992 C 160.487 24.422,160.845 24.672,161.592 25.584 C 162.811 27.070,162.741 25.779,162.833 48.381 C 162.922 70.061,162.879 68.984,163.667 69.000 C 164.082 69.008,166.512 69.802,166.764 70.012 C 167.094 70.286,167.074 71.436,166.736 71.566 C 166.319 71.726,158.725 71.683,158.300 71.518 C 155.553 70.453,154.438 69.562,153.326 67.541 C 152.765 66.520,152.709 66.533,151.624 67.917 C 145.584 75.623,133.353 72.464,130.007 62.333 C 128.608 58.099,128.508 49.476,129.829 47.009 C 129.923 46.833,130.002 46.552,130.004 46.386 C 130.009 45.884,131.698 42.730,132.500 41.725 C 134.449 39.280,137.209 37.641,140.711 36.847 C 142.553 36.429,146.829 36.703,148.155 37.324 C 149.165 37.797,150.331 38.441,150.781 38.773 C 151.072 38.990,151.392 39.167,151.491 39.167 C 151.805 39.167,151.649 26.153,151.333 25.994 C 151.196 25.925,150.671 25.780,150.167 25.671 C 147.826 25.166,147.436 24.902,147.631 23.958 C 147.728 23.488,158.013 23.517,159.311 23.992 M178.523 23.902 C 181.942 25.331,182.556 30.267,179.595 32.520 C 174.841 36.136,168.934 29.441,173.069 25.125 C 174.368 23.769,176.865 23.210,178.523 23.902 M199.003 23.958 C 200.698 24.615,201.510 25.393,202.204 27.025 L 202.583 27.917 202.633 48.583 C 202.661 59.950,202.738 69.304,202.804 69.371 C 202.871 69.437,203.663 69.679,204.565 69.908 C 206.427 70.380,206.704 70.547,206.633 71.152 L 206.583 71.583 197.000 71.583 L 187.417 71.583 187.367 71.152 C 187.290 70.490,187.578 70.341,189.917 69.834 C 190.283 69.755,190.754 69.626,190.961 69.548 L 191.340 69.407 191.338 48.023 C 191.336 26.000,191.343 26.333,190.855 26.333 C 190.386 26.333,187.770 25.644,187.542 25.460 C 187.325 25.286,187.249 23.973,187.444 23.778 C 187.727 23.495,198.231 23.659,199.003 23.958 M340.311 23.992 C 341.483 24.420,341.845 24.672,342.579 25.567 C 343.901 27.180,343.831 25.900,343.832 48.404 C 343.833 70.020,343.793 69.000,344.655 69.000 C 345.032 69.000,347.538 69.828,347.792 70.036 C 348.101 70.290,348.059 71.442,347.736 71.566 C 347.075 71.819,339.823 71.670,338.948 71.384 C 336.864 70.704,335.395 69.482,334.326 67.541 C 333.765 66.521,333.719 66.531,332.599 67.936 C 330.187 70.964,327.012 72.355,323.083 72.105 C 316.572 71.691,312.288 67.589,310.352 59.917 C 309.561 56.782,309.855 48.828,310.829 47.009 C 310.923 46.833,311.002 46.552,311.004 46.386 C 311.009 45.884,312.698 42.730,313.500 41.725 C 315.460 39.267,318.118 37.689,321.711 36.852 C 323.529 36.428,327.823 36.700,329.155 37.324 C 330.165 37.797,331.331 38.441,331.781 38.773 C 332.072 38.990,332.392 39.167,332.491 39.167 C 332.805 39.167,332.649 26.153,332.333 25.994 C 332.196 25.925,331.671 25.780,331.167 25.671 C 328.939 25.190,328.667 25.043,328.667 24.320 L 328.667 23.667 334.044 23.667 C 338.960 23.667,339.498 23.695,340.311 23.992 M262.180 27.453 C 262.288 27.737,262.333 29.601,262.301 32.453 L 262.250 37.000 266.719 37.000 C 271.736 37.000,271.833 37.019,271.833 38.000 C 271.833 38.981,271.736 39.000,266.719 39.000 L 262.250 39.000 262.284 51.292 C 262.323 64.979,262.373 65.740,263.379 67.750 C 265.918 72.821,272.984 69.182,273.003 62.794 C 273.006 61.619,273.145 61.444,274.074 61.444 C 275.196 61.444,275.258 61.566,275.015 63.286 C 274.371 67.850,272.231 70.633,268.417 71.867 C 267.435 72.185,263.240 72.134,261.667 71.785 C 256.501 70.639,253.127 67.804,251.515 63.255 L 251.100 62.083 251.040 50.542 L 250.979 39.000 248.717 39.000 C 247.473 39.000,246.184 39.071,245.853 39.157 C 245.521 39.243,244.892 39.403,244.454 39.513 C 244.016 39.623,243.604 39.796,243.537 39.898 C 243.471 40.000,243.379 47.171,243.333 55.833 L 243.250 71.583 241.772 71.632 C 240.311 71.680,239.389 71.499,238.058 70.902 C 237.769 70.773,237.483 70.667,237.422 70.667 C 236.858 70.667,234.695 68.616,233.948 67.375 C 233.304 66.303,233.359 66.301,232.591 67.416 C 227.692 74.529,215.489 73.380,211.363 65.417 C 210.162 63.099,210.262 64.279,210.210 51.750 C 210.185 45.517,210.129 40.262,210.087 40.072 C 210.023 39.789,209.718 39.658,208.379 39.335 C 206.124 38.791,206.139 38.801,206.200 37.864 L 206.250 37.083 211.333 37.039 C 218.012 36.981,219.400 37.382,220.612 39.721 C 221.196 40.847,221.230 41.444,221.338 52.500 C 221.456 64.591,221.441 64.406,222.460 66.423 C 224.535 70.527,228.834 70.131,231.500 65.590 L 232.083 64.597 232.167 52.282 C 232.213 45.509,232.213 39.910,232.167 39.838 C 232.121 39.767,231.298 39.517,230.339 39.282 C 228.507 38.833,228.167 38.607,228.167 37.835 C 228.167 36.973,227.797 37.000,239.759 37.000 L 250.952 37.000 251.043 34.042 C 251.177 29.683,252.050 28.216,255.167 27.115 C 255.304 27.066,256.900 27.020,258.712 27.013 L 262.008 27.000 262.180 27.453 M114.362 36.922 C 114.942 37.063,115.547 37.250,115.706 37.339 C 115.865 37.427,116.112 37.500,116.254 37.500 C 116.608 37.500,118.892 38.725,119.855 39.432 C 121.653 40.753,123.209 42.931,123.929 45.137 L 124.333 46.376 124.333 57.845 C 124.333 66.518,124.382 69.343,124.531 69.436 C 124.736 69.563,126.038 69.910,127.316 70.178 C 128.247 70.374,128.529 70.613,128.467 71.152 L 128.417 71.583 123.024 71.627 C 116.012 71.685,115.038 71.374,113.768 68.672 L 113.256 67.583 113.150 56.417 C 113.085 49.602,112.976 44.990,112.871 44.583 C 112.344 42.555,111.737 41.411,110.685 40.465 C 109.192 39.122,107.468 39.022,105.763 40.177 C 104.565 40.990,103.077 42.935,102.584 44.332 C 102.243 45.299,102.203 69.190,102.542 69.457 C 102.656 69.547,103.479 69.789,104.369 69.994 C 106.119 70.398,106.427 70.602,106.265 71.248 L 106.160 71.667 96.658 71.667 C 86.337 71.667,86.827 71.712,87.063 70.772 C 87.164 70.368,87.180 70.362,89.667 69.824 C 90.079 69.735,90.548 69.620,90.709 69.569 C 90.986 69.482,90.999 68.678,90.959 54.961 L 90.917 40.445 89.083 39.674 C 87.007 38.802,86.622 38.401,87.035 37.542 L 87.255 37.083 91.286 37.083 C 94.289 37.083,95.370 37.136,95.525 37.292 C 95.640 37.406,95.873 37.500,96.043 37.500 C 97.153 37.500,99.365 39.491,100.342 41.370 C 101.155 42.932,101.137 42.930,101.966 41.618 C 104.476 37.643,109.492 35.743,114.362 36.922 M296.333 36.960 C 302.262 38.258,306.367 41.554,307.899 46.246 C 308.749 48.846,308.383 53.541,307.305 53.868 C 307.092 53.933,306.167 54.104,305.250 54.248 C 304.333 54.392,303.166 54.582,302.657 54.671 C 302.147 54.760,301.426 54.833,301.054 54.833 C 300.683 54.833,299.975 54.913,299.481 55.011 C 297.905 55.323,295.028 55.525,290.944 55.610 L 286.972 55.693 287.061 57.555 C 287.347 63.508,288.234 66.281,290.536 68.420 C 294.975 72.545,303.303 69.031,304.659 62.461 C 304.878 61.400,304.990 61.278,305.750 61.278 C 306.527 61.278,306.667 61.437,306.667 62.317 C 306.667 66.326,302.043 70.883,297.000 71.845 C 293.524 72.508,287.100 71.816,284.727 70.524 C 284.557 70.431,284.192 70.250,283.917 70.121 C 271.855 64.489,272.171 43.815,284.404 38.163 C 285.194 37.798,285.952 37.500,286.089 37.500 C 286.226 37.500,286.468 37.424,286.627 37.331 C 287.646 36.735,294.165 36.486,296.333 36.960 M178.917 37.307 C 181.158 38.072,182.038 39.004,182.717 41.333 C 182.823 41.696,182.924 47.108,182.985 55.661 L 183.083 69.405 184.417 69.766 C 185.150 69.965,185.954 70.175,186.204 70.232 C 186.731 70.354,187.063 70.871,186.915 71.340 C 186.761 71.823,167.945 71.857,167.692 71.375 C 167.347 70.717,167.727 70.400,169.309 70.024 C 170.135 69.827,171.004 69.593,171.239 69.504 L 171.667 69.342 171.667 54.424 L 171.667 39.506 171.208 39.400 C 167.713 38.585,166.926 38.097,167.762 37.262 C 168.168 36.856,177.710 36.894,178.917 37.307 M291.021 38.410 C 288.580 39.294,287.319 43.478,287.057 51.568 L 286.982 53.886 289.033 53.769 C 296.873 53.324,296.184 53.502,296.564 51.817 C 298.158 44.759,294.946 36.989,291.021 38.410 M144.917 39.409 C 142.340 40.664,141.271 43.398,140.839 49.833 C 140.376 56.725,141.018 63.911,142.328 66.500 C 143.831 69.473,145.883 70.078,148.500 68.321 C 149.591 67.588,150.530 66.415,151.299 64.822 C 151.696 64.000,151.894 42.786,151.514 41.786 C 150.796 39.899,146.839 38.473,144.917 39.409 M325.917 39.409 C 323.340 40.664,322.271 43.398,321.839 49.833 C 321.376 56.725,322.018 63.911,323.328 66.500 C 324.831 69.473,326.883 70.078,329.500 68.321 C 330.591 67.588,331.530 66.415,332.299 64.822 C 332.696 64.000,332.894 42.786,332.514 41.786 C 331.796 39.899,327.839 38.473,325.917 39.409 M46.895 102.713 C 47.055 102.831,48.066 105.212,49.141 108.005 L 51.095 113.083 51.756 113.167 C 52.337 113.240,52.423 113.308,52.472 113.732 C 52.549 114.412,52.316 114.495,50.333 114.495 C 48.351 114.495,48.117 114.412,48.195 113.732 C 48.244 113.305,48.323 113.244,48.889 113.197 C 49.411 113.154,49.507 113.094,49.414 112.864 C 49.352 112.710,49.145 112.171,48.955 111.667 C 48.432 110.282,48.536 110.333,46.250 110.333 C 43.958 110.333,44.049 110.289,43.537 111.667 C 43.349 112.171,43.145 112.710,43.084 112.864 C 42.993 113.094,43.090 113.155,43.611 113.197 C 44.296 113.254,44.650 114.030,44.138 114.354 C 43.883 114.516,40.939 114.546,40.366 114.393 C 39.642 114.199,39.924 113.270,40.739 113.167 L 41.395 113.083 43.031 108.750 C 43.931 106.367,44.710 104.285,44.762 104.125 C 44.837 103.890,44.756 103.833,44.345 103.833 C 43.843 103.833,43.567 102.989,43.944 102.611 C 44.149 102.406,46.591 102.491,46.895 102.713 M68.315 102.744 C 68.695 102.877,69.262 103.183,69.575 103.422 L 70.145 103.856 70.198 103.221 C 70.254 102.536,70.508 102.382,71.268 102.573 C 71.677 102.676,71.677 102.678,71.630 104.629 L 71.583 106.583 70.833 106.583 C 70.166 106.583,70.077 106.539,70.026 106.179 C 69.661 103.591,65.007 103.221,63.379 105.650 C 62.546 106.894,62.420 109.561,63.131 110.937 C 64.446 113.486,68.059 113.860,70.127 111.662 C 71.198 110.524,72.272 111.071,71.438 112.331 C 69.040 115.954,62.765 114.992,61.308 110.777 C 59.636 105.938,63.809 101.154,68.315 102.744 M82.069 102.842 C 87.415 104.843,86.811 113.185,81.231 114.426 C 74.262 115.977,71.199 105.614,77.820 102.890 C 79.053 102.383,80.790 102.364,82.069 102.842 M95.350 102.687 C 95.662 102.790,96.194 103.090,96.532 103.354 C 97.306 103.958,97.303 103.958,97.365 103.208 C 97.421 102.527,98.074 102.244,98.593 102.675 C 98.863 102.898,98.942 106.070,98.689 106.470 C 98.370 106.972,97.319 106.637,97.087 105.960 C 96.079 103.012,91.281 103.424,90.083 106.561 C 88.229 111.415,93.707 115.333,97.242 111.681 C 97.986 110.912,98.139 110.873,98.681 111.312 C 99.617 112.069,97.490 113.877,95.001 114.439 C 90.625 115.427,87.149 111.317,88.322 106.540 C 89.024 103.681,92.535 101.757,95.350 102.687 M105.236 102.601 C 105.830 102.829,105.569 103.833,104.917 103.833 L 104.333 103.833 104.333 106.099 L 104.333 108.366 105.875 108.308 C 108.234 108.219,109.008 107.456,109.263 104.965 L 109.377 103.856 108.730 103.803 C 108.037 103.746,107.680 102.972,108.195 102.646 C 108.607 102.385,111.935 102.470,112.165 102.748 C 112.560 103.223,112.233 103.833,111.583 103.833 C 110.945 103.833,110.924 103.875,110.770 105.450 C 110.663 106.537,109.972 108.020,109.315 108.573 L 108.813 108.996 109.222 109.539 C 109.447 109.839,109.977 110.777,110.400 111.625 C 111.151 113.128,111.185 113.167,111.752 113.167 C 112.403 113.167,112.662 114.172,112.070 114.399 C 110.712 114.920,110.015 114.418,108.862 112.088 C 107.655 109.649,107.817 109.779,105.875 109.694 L 104.333 109.627 104.333 111.397 L 104.333 113.167 105.167 113.167 L 106.000 113.167 106.000 113.732 C 106.000 114.459,105.875 114.500,103.667 114.500 C 101.458 114.500,101.333 114.459,101.333 113.732 C 101.333 113.184,101.353 113.167,102.000 113.167 L 102.667 113.167 102.667 108.500 L 102.667 103.833 102.000 103.833 C 101.349 103.833,100.997 103.059,101.444 102.611 C 101.583 102.472,104.878 102.464,105.236 102.601 M125.131 104.218 L 125.179 105.853 124.464 105.802 L 123.750 105.750 123.700 104.792 L 123.650 103.833 122.242 103.833 L 120.833 103.833 120.833 108.490 L 120.833 113.147 121.458 113.198 C 122.131 113.254,122.477 114.034,121.972 114.354 C 121.716 114.516,118.607 114.546,118.033 114.393 C 117.266 114.187,117.597 113.261,118.458 113.199 L 119.167 113.148 119.167 108.484 L 119.167 103.820 117.708 103.869 L 116.250 103.917 116.200 104.884 L 116.149 105.852 115.450 105.801 L 114.750 105.750 114.701 104.264 C 114.639 102.358,114.209 102.495,120.083 102.543 L 125.083 102.583 125.131 104.218 M134.009 102.672 C 134.475 102.921,135.150 104.529,138.083 112.375 C 138.366 113.132,138.407 113.167,139.023 113.167 C 139.644 113.167,139.667 113.187,139.667 113.732 C 139.667 114.448,139.525 114.500,137.583 114.500 C 135.642 114.500,135.500 114.448,135.500 113.732 C 135.500 113.185,135.522 113.167,136.154 113.167 L 136.808 113.167 136.272 111.792 L 135.737 110.417 133.514 110.417 L 131.291 110.417 130.812 111.664 C 130.217 113.215,130.213 113.167,130.927 113.167 C 131.511 113.167,131.519 113.177,131.468 113.792 L 131.417 114.417 129.750 114.465 C 127.520 114.531,127.333 114.475,127.333 113.747 C 127.333 113.183,127.352 113.167,127.988 113.167 C 128.625 113.167,128.652 113.143,128.972 112.292 C 132.454 103.026,132.196 103.878,131.542 103.803 C 131.027 103.744,130.826 103.161,131.174 102.741 C 131.412 102.454,133.507 102.403,134.009 102.672 M146.659 102.741 C 147.089 103.259,146.806 103.746,146.042 103.801 L 145.333 103.852 145.333 108.500 L 145.333 113.148 146.042 113.199 C 146.903 113.261,147.234 114.187,146.467 114.393 C 145.970 114.526,142.940 114.531,142.597 114.399 C 141.950 114.151,142.272 113.167,143.000 113.167 L 143.667 113.167 143.667 108.500 L 143.667 103.833 143.000 103.833 C 142.349 103.833,141.997 103.059,142.444 102.611 C 142.683 102.373,146.450 102.489,146.659 102.741 M153.468 103.198 C 153.519 103.813,153.519 103.813,152.801 103.865 L 152.083 103.917 152.039 108.542 L 151.995 113.167 154.581 113.167 L 157.167 113.167 157.167 112.250 L 157.167 111.333 157.833 111.333 L 158.500 111.333 158.500 112.816 C 158.500 114.013,158.449 114.317,158.236 114.399 C 157.830 114.555,149.446 114.514,149.195 114.354 C 148.650 114.009,149.040 113.253,149.792 113.199 L 150.500 113.148 150.500 108.500 L 150.500 103.852 149.792 103.801 C 149.149 103.755,149.078 103.706,149.028 103.268 C 148.949 102.569,149.193 102.495,151.417 102.541 L 153.417 102.583 153.468 103.198 M175.798 104.125 L 175.846 105.667 175.191 105.667 C 174.452 105.667,174.333 105.503,174.333 104.482 L 174.333 103.824 172.125 103.870 L 169.917 103.917 169.870 105.870 L 169.823 107.823 171.870 107.870 L 173.917 107.917 173.917 108.500 L 173.917 109.083 171.917 109.167 L 169.917 109.250 169.870 111.200 L 169.823 113.150 170.870 113.200 C 172.041 113.256,172.603 114.133,171.634 114.393 C 171.057 114.547,167.283 114.516,167.028 114.354 C 166.482 114.008,166.874 113.253,167.628 113.199 L 168.339 113.147 168.294 108.532 L 168.250 103.917 167.583 103.833 C 167.043 103.766,166.906 103.677,166.862 103.363 C 166.736 102.475,166.649 102.491,171.371 102.539 L 175.750 102.583 175.798 104.125 M182.403 102.601 C 183.062 102.854,182.725 103.810,181.958 103.865 L 181.250 103.917 181.206 108.542 L 181.161 113.167 181.914 113.167 C 182.720 113.167,183.103 114.130,182.403 114.399 C 182.003 114.552,178.615 114.515,178.362 114.354 C 177.816 114.008,178.207 113.253,178.961 113.199 L 179.672 113.147 179.628 108.532 L 179.583 103.917 178.917 103.833 C 178.205 103.744,177.844 102.974,178.362 102.646 C 178.615 102.485,182.003 102.448,182.403 102.601 M187.865 102.647 C 188.220 102.782,188.884 103.760,193.199 110.500 L 193.999 111.750 194.000 107.801 L 194.000 103.852 193.292 103.801 C 192.629 103.753,192.580 103.716,192.532 103.214 C 192.465 102.527,192.675 102.471,195.083 102.535 L 196.917 102.583 196.968 103.208 L 197.020 103.833 196.346 103.833 L 195.671 103.833 195.627 109.038 L 195.583 114.242 195.125 114.403 C 194.011 114.795,193.895 114.653,189.166 107.125 C 188.605 106.231,188.113 105.500,188.073 105.500 C 188.033 105.500,188.000 107.225,188.000 109.333 L 188.000 113.167 188.750 113.167 C 189.554 113.167,189.935 114.131,189.236 114.399 C 188.837 114.552,185.448 114.515,185.195 114.354 C 184.649 114.008,185.041 113.253,185.794 113.199 L 186.505 113.147 186.461 108.532 L 186.417 103.917 185.750 103.833 C 185.069 103.748,184.826 103.360,185.065 102.738 C 185.170 102.464,187.209 102.398,187.865 102.647 M205.562 102.748 C 210.635 103.823,211.736 111.502,207.153 113.840 C 206.069 114.393,200.630 114.795,199.597 114.399 C 198.950 114.151,199.272 113.167,200.000 113.167 L 200.667 113.167 200.667 108.500 L 200.667 103.833 200.000 103.833 C 199.349 103.833,198.997 103.059,199.444 102.611 C 199.660 102.395,204.397 102.502,205.562 102.748 M221.403 102.601 C 221.616 102.683,221.667 102.988,221.667 104.194 L 221.667 105.686 220.958 105.635 L 220.250 105.583 220.199 104.704 L 220.149 103.824 217.783 103.870 L 215.417 103.917 215.370 105.875 L 215.323 107.833 217.492 107.833 L 219.660 107.833 219.765 108.250 C 219.982 109.116,219.857 109.167,217.505 109.167 L 215.333 109.167 215.333 111.167 L 215.333 113.167 217.741 113.167 L 220.149 113.167 220.200 112.292 L 220.250 111.417 220.917 111.417 L 221.583 111.417 221.632 112.819 C 221.667 113.828,221.621 114.260,221.466 114.358 C 221.180 114.539,212.814 114.535,212.528 114.354 C 211.982 114.008,212.374 113.253,213.128 113.199 L 213.839 113.147 213.794 108.532 L 213.750 103.917 213.083 103.833 C 212.402 103.748,212.159 103.360,212.398 102.738 C 212.493 102.491,220.788 102.365,221.403 102.601 M230.634 102.739 C 232.869 103.334,233.931 105.499,233.058 107.680 C 232.792 108.345,231.706 109.333,231.241 109.333 C 231.118 109.333,231.317 109.834,231.726 110.551 C 232.108 111.220,232.560 112.079,232.731 112.459 C 233.004 113.063,233.118 113.155,233.646 113.200 C 234.568 113.277,234.659 114.257,233.760 114.426 C 232.238 114.711,231.869 114.410,230.680 111.917 C 229.685 109.832,229.687 109.833,228.224 109.833 L 227.000 109.833 227.000 111.500 L 227.000 113.167 227.833 113.167 L 228.667 113.167 228.667 113.732 C 228.667 114.459,228.542 114.500,226.333 114.500 C 224.125 114.500,224.000 114.459,224.000 113.732 C 224.000 113.184,224.020 113.167,224.667 113.167 L 225.333 113.167 225.333 108.500 L 225.333 103.833 224.667 103.833 C 224.016 103.833,223.664 103.059,224.111 102.611 C 224.332 102.390,229.719 102.496,230.634 102.739 M78.999 103.980 C 74.318 105.506,75.080 113.048,79.917 113.070 C 85.207 113.094,85.598 104.413,80.329 103.928 C 79.827 103.881,79.229 103.905,78.999 103.980 M202.333 108.503 L 202.333 113.216 203.904 113.122 C 207.267 112.921,208.579 111.321,208.293 107.767 C 208.096 105.303,206.748 104.136,203.842 103.908 L 202.333 103.790 202.333 108.503 M227.037 106.100 L 227.083 108.417 228.623 108.385 C 230.940 108.337,231.705 107.791,231.705 106.185 C 231.705 104.569,230.957 104.020,228.559 103.877 L 226.990 103.784 227.037 106.100 M132.622 106.798 C 132.188 107.963,131.833 108.973,131.833 109.042 C 131.833 109.222,134.962 109.196,135.074 109.015 C 135.173 108.855,133.801 105.068,133.555 104.822 C 133.475 104.742,133.064 105.613,132.622 106.798 M45.313 106.912 C 44.415 109.357,44.336 109.167,46.250 109.167 C 48.170 109.167,48.098 109.339,47.170 106.959 C 46.181 104.420,46.229 104.421,45.313 106.912 " stroke="none" fill="#7c3c14" fill-rule="evenodd"></path></g></svg>